<svg xmlns="http://www.w3.org/2000/svg" viewBox="0 0 1600 900" width="1600" height="900" preserveAspectRatio="xMidYMid slice">
<defs>
  <linearGradient id="sky" x1="0" y1="0" x2="0" y2="1">
    <stop offset="0" stop-color="#0a1730"/>
    <stop offset="0.45" stop-color="#0b1526"/>
    <stop offset="0.75" stop-color="#0c1220"/>
    <stop offset="1" stop-color="#0a0d15"/>
  </linearGradient>
  <radialGradient id="glow" cx="50%" cy="100%" r="75%">
    <stop offset="0" stop-color="#243b52" stop-opacity="0.9"/>
    <stop offset="0.4" stop-color="#16273c" stop-opacity="0.5"/>
    <stop offset="1" stop-color="#0a0d15" stop-opacity="0"/>
  </radialGradient>
  <linearGradient id="mw" x1="0" y1="0" x2="1" y2="1">
    <stop offset="0" stop-color="#3a4d78" stop-opacity="0"/>
    <stop offset="0.5" stop-color="#586a99" stop-opacity="0.45"/>
    <stop offset="1" stop-color="#2a3358" stop-opacity="0"/>
  </linearGradient>
  <radialGradient id="mwcore" cx="50%" cy="50%" r="50%">
    <stop offset="0" stop-color="#b9a9c9" stop-opacity="0.5"/>
    <stop offset="0.4" stop-color="#6b6f9e" stop-opacity="0.28"/>
    <stop offset="1" stop-color="#2a3358" stop-opacity="0"/>
  </radialGradient>
  <linearGradient id="ground" x1="0" y1="0" x2="0" y2="1">
    <stop offset="0" stop-color="#0a0e15"/>
    <stop offset="1" stop-color="#05070b"/>
  </linearGradient>
  <filter id="soft" x="-40%" y="-40%" width="180%" height="180%">
    <feGaussianBlur stdDeviation="46"/>
  </filter>
  <filter id="soft2" x="-40%" y="-40%" width="180%" height="180%">
    <feGaussianBlur stdDeviation="26"/>
  </filter>
</defs>

<rect width="1600" height="660" fill="url(#sky)"/>

<!-- Milky Way band -->
<g transform="rotate(38 800.0 330.0)" opacity="0.85">
  <ellipse cx="800.0" cy="330.0" rx="720" ry="150" fill="url(#mw)" filter="url(#soft)"/>
  <ellipse cx="760.0" cy="300.0" rx="500" ry="90" fill="url(#mw)" filter="url(#soft)" opacity="0.7"/>
  <ellipse cx="840.0" cy="330.0" rx="380" ry="60" fill="url(#mwcore)" filter="url(#soft2)"/>
</g>

<circle cx="1023.1" cy="16.5" r="0.70" fill="#fff" opacity="0.40"/>
<circle cx="1178.4" cy="446.6" r="1.38" fill="#fff" opacity="0.31"/>
<circle cx="675.1" cy="19.7" r="0.64" fill="#fff" opacity="0.58"/>
<circle cx="42.5" cy="131.2" r="1.11" fill="#fff" opacity="0.60"/>
<circle cx="352.7" cy="388.9" r="1.29" fill="#fff" opacity="0.25"/>
<circle cx="1289.3" cy="460.8" r="0.77" fill="#fff" opacity="0.35"/>
<circle cx="1531.5" cy="222.2" r="0.50" fill="#fff" opacity="0.31"/>
<circle cx="1356.0" cy="398.5" r="1.29" fill="#fff" opacity="0.72"/>
<circle cx="858.0" cy="642.3" r="0.82" fill="#fff" opacity="0.61"/>
<circle cx="1327.0" cy="408.2" r="1.35" fill="#fff" opacity="0.63"/>
<circle cx="1127.3" cy="30.2" r="0.65" fill="#fff" opacity="0.44"/>
<circle cx="127.7" cy="153.6" r="0.51" fill="#fff" opacity="0.43"/>
<circle cx="1017.1" cy="240.8" r="0.81" fill="#fff" opacity="0.39"/>
<circle cx="427.2" cy="618.2" r="1.11" fill="#fff" opacity="0.65"/>
<circle cx="273.8" cy="481.2" r="0.58" fill="#fff" opacity="0.50"/>
<circle cx="1583.2" cy="422.4" r="1.01" fill="#fff" opacity="0.69"/>
<circle cx="1348.6" cy="512.2" r="0.65" fill="#fff" opacity="0.27"/>
<circle cx="504.7" cy="176.7" r="0.63" fill="#fff" opacity="0.86"/>
<circle cx="1402.2" cy="207.7" r="1.12" fill="#fff" opacity="0.51"/>
<circle cx="1463.3" cy="302.8" r="0.69" fill="#fff" opacity="0.41"/>
<circle cx="898.2" cy="173.4" r="1.04" fill="#fff" opacity="0.83"/>
<circle cx="639.0" cy="144.8" r="1.50" fill="#fff" opacity="0.58"/>
<circle cx="145.5" cy="31.1" r="0.52" fill="#fff" opacity="0.66"/>
<circle cx="1267.3" cy="278.6" r="0.47" fill="#fff" opacity="0.50"/>
<circle cx="1593.8" cy="349.2" r="1.47" fill="#fff" opacity="0.81"/>
<circle cx="18.4" cy="475.7" r="1.15" fill="#fff" opacity="0.60"/>
<circle cx="426.9" cy="423.0" r="0.52" fill="#fff" opacity="0.53"/>
<circle cx="726.0" cy="629.5" r="1.36" fill="#fff" opacity="0.42"/>
<circle cx="800.9" cy="117.9" r="1.40" fill="#fff" opacity="0.82"/>
<circle cx="477.5" cy="421.7" r="1.07" fill="#fff" opacity="0.35"/>
<circle cx="1220.0" cy="356.0" r="1.26" fill="#fff" opacity="0.59"/>
<circle cx="0.9" cy="213.9" r="0.42" fill="#fff" opacity="0.85"/>
<circle cx="1406.0" cy="548.9" r="0.74" fill="#fff" opacity="0.29"/>
<circle cx="1404.8" cy="625.0" r="0.49" fill="#fff" opacity="0.57"/>
<circle cx="110.7" cy="502.0" r="1.24" fill="#fff" opacity="0.33"/>
<circle cx="760.5" cy="362.9" r="0.69" fill="#fff" opacity="0.82"/>
<circle cx="677.0" cy="139.8" r="0.99" fill="#fff" opacity="0.72"/>
<circle cx="321.8" cy="205.7" r="1.49" fill="#fff" opacity="0.67"/>
<circle cx="701.0" cy="341.6" r="0.53" fill="#fff" opacity="0.40"/>
<circle cx="540.9" cy="388.3" r="0.65" fill="#fff" opacity="0.39"/>
<circle cx="113.6" cy="416.5" r="0.65" fill="#fff" opacity="0.84"/>
<circle cx="1375.4" cy="46.8" r="0.66" fill="#fff" opacity="0.68"/>
<circle cx="342.8" cy="87.3" r="1.43" fill="#fff" opacity="0.62"/>
<circle cx="756.3" cy="517.8" r="1.29" fill="#fff" opacity="0.37"/>
<circle cx="155.1" cy="284.5" r="0.87" fill="#fff" opacity="0.55"/>
<circle cx="1166.5" cy="444.4" r="1.48" fill="#fff" opacity="0.31"/>
<circle cx="644.2" cy="223.9" r="1.35" fill="#fff" opacity="0.41"/>
<circle cx="304.3" cy="296.1" r="0.86" fill="#fff" opacity="0.43"/>
<circle cx="399.7" cy="609.4" r="0.89" fill="#fff" opacity="0.81"/>
<circle cx="880.5" cy="33.4" r="1.50" fill="#fff" opacity="0.79"/>
<circle cx="1550.4" cy="611.4" r="1.33" fill="#fff" opacity="0.36"/>
<circle cx="777.0" cy="141.1" r="0.84" fill="#fff" opacity="0.29"/>
<circle cx="606.4" cy="650.3" r="0.69" fill="#fff" opacity="0.76"/>
<circle cx="728.0" cy="279.2" r="1.45" fill="#fff" opacity="0.90"/>
<circle cx="889.2" cy="474.1" r="0.57" fill="#fff" opacity="0.44"/>
<circle cx="1549.9" cy="382.3" r="1.00" fill="#fff" opacity="0.74"/>
<circle cx="91.5" cy="385.6" r="0.95" fill="#fff" opacity="0.80"/>
<circle cx="251.9" cy="634.1" r="0.49" fill="#fff" opacity="0.37"/>
<circle cx="952.1" cy="445.6" r="0.66" fill="#fff" opacity="0.33"/>
<circle cx="1424.5" cy="162.5" r="1.05" fill="#fff" opacity="0.65"/>
<circle cx="670.8" cy="385.2" r="0.98" fill="#fff" opacity="0.86"/>
<circle cx="326.8" cy="472.7" r="0.66" fill="#fff" opacity="0.51"/>
<circle cx="1074.7" cy="198.0" r="0.75" fill="#fff" opacity="0.74"/>
<circle cx="116.1" cy="302.5" r="1.50" fill="#fff" opacity="0.90"/>
<circle cx="117.2" cy="140.7" r="0.69" fill="#fff" opacity="0.86"/>
<circle cx="1409.4" cy="580.3" r="0.81" fill="#fff" opacity="0.35"/>
<circle cx="1334.0" cy="464.3" r="1.07" fill="#fff" opacity="0.89"/>
<circle cx="1046.4" cy="5.2" r="1.30" fill="#fff" opacity="0.44"/>
<circle cx="1061.4" cy="619.7" r="0.55" fill="#fff" opacity="0.33"/>
<circle cx="171.3" cy="365.1" r="0.70" fill="#fff" opacity="0.64"/>
<circle cx="1148.2" cy="134.4" r="1.10" fill="#fff" opacity="0.42"/>
<circle cx="781.7" cy="597.5" r="1.33" fill="#fff" opacity="0.31"/>
<circle cx="677.7" cy="182.6" r="0.40" fill="#fff" opacity="0.75"/>
<circle cx="1019.4" cy="172.9" r="1.22" fill="#fff" opacity="0.61"/>
<circle cx="684.3" cy="6.4" r="0.48" fill="#fff" opacity="0.82"/>
<circle cx="1446.3" cy="360.1" r="1.32" fill="#fff" opacity="0.63"/>
<circle cx="237.0" cy="84.1" r="0.74" fill="#fff" opacity="0.83"/>
<circle cx="1273.8" cy="568.1" r="1.39" fill="#fff" opacity="0.39"/>
<circle cx="399.2" cy="67.8" r="1.26" fill="#fff" opacity="0.82"/>
<circle cx="650.2" cy="409.6" r="0.57" fill="#fff" opacity="0.85"/>
<circle cx="1383.4" cy="644.3" r="1.29" fill="#fff" opacity="0.82"/>
<circle cx="39.7" cy="486.1" r="0.77" fill="#fff" opacity="0.86"/>
<circle cx="1283.6" cy="570.3" r="1.29" fill="#fff" opacity="0.42"/>
<circle cx="1259.8" cy="71.3" r="1.36" fill="#fff" opacity="0.81"/>
<circle cx="355.9" cy="538.9" r="0.91" fill="#fff" opacity="0.45"/>
<circle cx="1272.6" cy="150.2" r="0.43" fill="#fff" opacity="0.38"/>
<circle cx="525.2" cy="570.5" r="1.46" fill="#fff" opacity="0.43"/>
<circle cx="1026.4" cy="263.8" r="1.48" fill="#fff" opacity="0.60"/>
<circle cx="1502.8" cy="76.1" r="1.47" fill="#fff" opacity="0.37"/>
<circle cx="1540.1" cy="175.2" r="0.52" fill="#fff" opacity="0.53"/>
<circle cx="1165.7" cy="207.0" r="1.07" fill="#fff" opacity="0.58"/>
<circle cx="616.3" cy="380.5" r="0.68" fill="#fff" opacity="0.71"/>
<circle cx="2.7" cy="610.9" r="0.99" fill="#fff" opacity="0.72"/>
<circle cx="1187.1" cy="442.6" r="0.80" fill="#fff" opacity="0.30"/>
<circle cx="1062.8" cy="217.9" r="0.75" fill="#fff" opacity="0.80"/>
<circle cx="1151.6" cy="198.2" r="0.74" fill="#fff" opacity="0.52"/>
<circle cx="643.8" cy="195.1" r="0.54" fill="#fff" opacity="0.52"/>
<circle cx="1504.6" cy="447.0" r="1.39" fill="#fff" opacity="0.65"/>
<circle cx="481.5" cy="361.6" r="0.40" fill="#fff" opacity="0.44"/>
<circle cx="687.8" cy="382.8" r="1.12" fill="#fff" opacity="0.55"/>
<circle cx="707.5" cy="141.0" r="0.92" fill="#fff" opacity="0.84"/>
<circle cx="1273.6" cy="112.0" r="0.49" fill="#fff" opacity="0.59"/>
<circle cx="1012.7" cy="221.2" r="1.30" fill="#fff" opacity="0.74"/>
<circle cx="1076.5" cy="148.3" r="0.62" fill="#fff" opacity="0.27"/>
<circle cx="391.7" cy="313.6" r="1.33" fill="#fff" opacity="0.30"/>
<circle cx="663.1" cy="415.6" r="0.61" fill="#fff" opacity="0.70"/>
<circle cx="791.0" cy="161.0" r="1.12" fill="#fff" opacity="0.25"/>
<circle cx="1201.5" cy="508.2" r="0.52" fill="#fff" opacity="0.53"/>
<circle cx="281.4" cy="632.3" r="0.97" fill="#fff" opacity="0.28"/>
<circle cx="398.7" cy="559.9" r="0.90" fill="#fff" opacity="0.77"/>
<circle cx="1068.1" cy="652.0" r="1.05" fill="#fff" opacity="0.87"/>
<circle cx="1426.3" cy="404.4" r="1.19" fill="#fff" opacity="0.58"/>
<circle cx="1328.9" cy="361.6" r="1.39" fill="#fff" opacity="0.73"/>
<circle cx="759.5" cy="171.1" r="0.67" fill="#fff" opacity="0.66"/>
<circle cx="1225.3" cy="344.1" r="1.09" fill="#fff" opacity="0.43"/>
<circle cx="124.0" cy="188.6" r="0.70" fill="#fff" opacity="0.46"/>
<circle cx="864.2" cy="91.3" r="0.65" fill="#fff" opacity="0.70"/>
<circle cx="1130.3" cy="42.4" r="0.85" fill="#fff" opacity="0.60"/>
<circle cx="665.2" cy="136.5" r="0.86" fill="#fff" opacity="0.84"/>
<circle cx="934.5" cy="459.0" r="1.34" fill="#fff" opacity="0.75"/>
<circle cx="608.6" cy="3.9" r="0.79" fill="#fff" opacity="0.74"/>
<circle cx="1365.5" cy="629.3" r="0.86" fill="#fff" opacity="0.74"/>
<circle cx="873.8" cy="398.1" r="0.64" fill="#fff" opacity="0.39"/>
<circle cx="697.3" cy="19.2" r="0.77" fill="#fff" opacity="0.69"/>
<circle cx="646.9" cy="108.9" r="0.91" fill="#fff" opacity="0.33"/>
<circle cx="995.6" cy="17.8" r="0.83" fill="#fff" opacity="0.62"/>
<circle cx="43.4" cy="424.2" r="0.55" fill="#fff" opacity="0.55"/>
<circle cx="80.5" cy="250.2" r="0.63" fill="#fff" opacity="0.46"/>
<circle cx="1218.0" cy="250.2" r="1.23" fill="#fff" opacity="0.79"/>
<circle cx="403.6" cy="54.1" r="0.42" fill="#fff" opacity="0.60"/>
<circle cx="1599.9" cy="231.0" r="1.12" fill="#fff" opacity="0.76"/>
<circle cx="1042.8" cy="497.8" r="1.44" fill="#fff" opacity="0.38"/>
<circle cx="32.6" cy="100.6" r="0.54" fill="#fff" opacity="0.69"/>
<circle cx="902.4" cy="143.9" r="1.17" fill="#fff" opacity="0.75"/>
<circle cx="268.5" cy="400.8" r="1.22" fill="#fff" opacity="0.32"/>
<circle cx="1310.9" cy="636.7" r="0.52" fill="#fff" opacity="0.27"/>
<circle cx="499.1" cy="447.0" r="1.45" fill="#fff" opacity="0.51"/>
<circle cx="1144.0" cy="50.2" r="1.16" fill="#fff" opacity="0.66"/>
<circle cx="163.0" cy="509.8" r="1.34" fill="#fff" opacity="0.64"/>
<circle cx="193.7" cy="649.3" r="1.26" fill="#fff" opacity="0.48"/>
<circle cx="685.4" cy="244.6" r="0.96" fill="#fff" opacity="0.47"/>
<circle cx="1359.3" cy="542.7" r="0.52" fill="#fff" opacity="0.87"/>
<circle cx="1016.9" cy="546.9" r="1.18" fill="#fff" opacity="0.53"/>
<circle cx="1174.1" cy="637.2" r="0.70" fill="#fff" opacity="0.78"/>
<circle cx="861.1" cy="319.1" r="0.88" fill="#fff" opacity="0.73"/>
<circle cx="429.4" cy="562.1" r="1.31" fill="#fff" opacity="0.31"/>
<circle cx="1410.6" cy="160.9" r="0.91" fill="#fff" opacity="0.65"/>
<circle cx="606.4" cy="18.9" r="1.34" fill="#fff" opacity="0.37"/>
<circle cx="339.4" cy="526.6" r="0.77" fill="#fff" opacity="0.82"/>
<circle cx="1121.9" cy="182.3" r="0.41" fill="#fff" opacity="0.87"/>
<circle cx="137.0" cy="475.2" r="0.94" fill="#fff" opacity="0.74"/>
<circle cx="1105.0" cy="426.3" r="0.94" fill="#fff" opacity="0.77"/>
<circle cx="148.9" cy="146.3" r="1.16" fill="#fff" opacity="0.45"/>
<circle cx="930.5" cy="312.4" r="0.98" fill="#fff" opacity="0.53"/>
<circle cx="1193.5" cy="218.3" r="1.17" fill="#fff" opacity="0.43"/>
<circle cx="402.2" cy="79.6" r="0.61" fill="#fff" opacity="0.33"/>
<circle cx="857.4" cy="503.0" r="0.60" fill="#fff" opacity="0.39"/>
<circle cx="774.7" cy="478.2" r="1.47" fill="#fff" opacity="0.59"/>
<circle cx="452.8" cy="66.3" r="0.61" fill="#fff" opacity="0.40"/>
<circle cx="287.1" cy="9.3" r="0.99" fill="#fff" opacity="0.43"/>
<circle cx="1558.9" cy="365.2" r="1.17" fill="#fff" opacity="0.33"/>
<circle cx="1389.5" cy="324.0" r="1.36" fill="#fff" opacity="0.62"/>
<circle cx="751.0" cy="290.7" r="0.60" fill="#fff" opacity="0.28"/>
<circle cx="1505.7" cy="315.3" r="1.30" fill="#fff" opacity="0.51"/>
<circle cx="118.5" cy="415.4" r="0.46" fill="#fff" opacity="0.35"/>
<circle cx="900.5" cy="200.5" r="1.49" fill="#fff" opacity="0.33"/>
<circle cx="1223.1" cy="400.2" r="1.27" fill="#fff" opacity="0.40"/>
<circle cx="836.1" cy="297.3" r="0.89" fill="#fff" opacity="0.81"/>
<circle cx="1584.1" cy="201.6" r="1.08" fill="#fff" opacity="0.65"/>
<circle cx="1184.1" cy="625.4" r="0.63" fill="#fff" opacity="0.39"/>
<circle cx="1056.7" cy="103.7" r="0.59" fill="#fff" opacity="0.30"/>
<circle cx="4.3" cy="297.3" r="1.05" fill="#fff" opacity="0.44"/>
<circle cx="370.4" cy="466.6" r="1.17" fill="#fff" opacity="0.55"/>
<circle cx="1099.8" cy="609.8" r="1.27" fill="#fff" opacity="0.66"/>
<circle cx="1057.9" cy="616.2" r="0.87" fill="#fff" opacity="0.60"/>
<circle cx="1036.2" cy="599.6" r="1.31" fill="#fff" opacity="0.30"/>
<circle cx="265.5" cy="203.0" r="1.22" fill="#fff" opacity="0.62"/>
<circle cx="461.8" cy="82.1" r="1.16" fill="#fff" opacity="0.70"/>
<circle cx="1508.3" cy="330.3" r="0.94" fill="#fff" opacity="0.30"/>
<circle cx="63.8" cy="285.1" r="0.75" fill="#fff" opacity="0.41"/>
<circle cx="146.1" cy="634.9" r="1.32" fill="#fff" opacity="0.62"/>
<circle cx="1521.3" cy="659.7" r="1.14" fill="#fff" opacity="0.43"/>
<circle cx="64.4" cy="499.1" r="0.92" fill="#fff" opacity="0.67"/>
<circle cx="1465.7" cy="119.8" r="1.04" fill="#fff" opacity="0.66"/>
<circle cx="786.8" cy="60.2" r="0.78" fill="#fff" opacity="0.47"/>
<circle cx="1072.2" cy="566.1" r="0.76" fill="#fff" opacity="0.70"/>
<circle cx="461.1" cy="623.8" r="1.29" fill="#fff" opacity="0.61"/>
<circle cx="727.7" cy="207.6" r="0.76" fill="#fff" opacity="0.88"/>
<circle cx="646.7" cy="339.6" r="1.49" fill="#fff" opacity="0.68"/>
<circle cx="868.1" cy="272.7" r="0.61" fill="#fff" opacity="0.49"/>
<circle cx="1210.3" cy="412.8" r="1.24" fill="#fff" opacity="0.38"/>
<circle cx="878.8" cy="612.3" r="0.88" fill="#fff" opacity="0.70"/>
<circle cx="194.3" cy="642.3" r="1.07" fill="#fff" opacity="0.41"/>
<circle cx="253.4" cy="363.6" r="1.01" fill="#fff" opacity="0.31"/>
<circle cx="1587.6" cy="602.5" r="0.91" fill="#fff" opacity="0.33"/>
<circle cx="1331.4" cy="328.9" r="1.19" fill="#fff" opacity="0.58"/>
<circle cx="437.5" cy="550.9" r="1.48" fill="#fff" opacity="0.41"/>
<circle cx="882.0" cy="253.2" r="1.41" fill="#fff" opacity="0.58"/>
<circle cx="1406.9" cy="570.3" r="0.70" fill="#fff" opacity="0.76"/>
<circle cx="663.9" cy="616.6" r="0.96" fill="#fff" opacity="0.78"/>
<circle cx="452.5" cy="197.0" r="1.05" fill="#fff" opacity="0.90"/>
<circle cx="783.4" cy="98.1" r="0.99" fill="#fff" opacity="0.47"/>
<circle cx="883.1" cy="358.7" r="0.90" fill="#fff" opacity="0.46"/>
<circle cx="301.8" cy="460.3" r="1.03" fill="#fff" opacity="0.40"/>
<circle cx="1240.9" cy="28.8" r="1.22" fill="#fff" opacity="0.71"/>
<circle cx="1298.3" cy="254.8" r="1.13" fill="#fff" opacity="0.78"/>
<circle cx="1569.3" cy="326.9" r="0.44" fill="#fff" opacity="0.58"/>
<circle cx="944.3" cy="574.0" r="1.36" fill="#fff" opacity="0.54"/>
<circle cx="841.5" cy="301.6" r="1.19" fill="#fff" opacity="0.52"/>
<circle cx="1047.7" cy="101.9" r="0.92" fill="#fff" opacity="0.88"/>
<circle cx="541.7" cy="457.2" r="1.11" fill="#fff" opacity="0.80"/>
<circle cx="1363.7" cy="567.2" r="0.82" fill="#fff" opacity="0.46"/>
<circle cx="1149.9" cy="501.2" r="1.36" fill="#fff" opacity="0.27"/>
<circle cx="109.5" cy="416.6" r="1.41" fill="#fff" opacity="0.90"/>
<circle cx="1194.8" cy="286.4" r="0.51" fill="#fff" opacity="0.66"/>
<circle cx="1396.1" cy="292.8" r="1.16" fill="#fff" opacity="0.84"/>
<circle cx="73.6" cy="525.5" r="0.72" fill="#fff" opacity="0.49"/>
<circle cx="232.9" cy="350.6" r="1.02" fill="#fff" opacity="0.77"/>
<circle cx="272.0" cy="52.1" r="1.36" fill="#fff" opacity="0.65"/>
<circle cx="385.3" cy="602.5" r="0.56" fill="#fff" opacity="0.55"/>
<circle cx="406.4" cy="168.5" r="0.41" fill="#fff" opacity="0.77"/>
<circle cx="1441.9" cy="447.2" r="0.57" fill="#fff" opacity="0.54"/>
<circle cx="552.9" cy="387.8" r="1.10" fill="#fff" opacity="0.53"/>
<circle cx="400.2" cy="557.9" r="0.62" fill="#fff" opacity="0.50"/>
<circle cx="773.1" cy="156.6" r="1.03" fill="#fff" opacity="0.62"/>
<circle cx="1588.3" cy="194.9" r="1.48" fill="#fff" opacity="0.68"/>
<circle cx="439.2" cy="373.5" r="1.15" fill="#fff" opacity="0.73"/>
<circle cx="78.5" cy="400.2" r="0.95" fill="#fff" opacity="0.84"/>
<circle cx="457.9" cy="527.2" r="1.07" fill="#fff" opacity="0.48"/>
<circle cx="1018.6" cy="409.8" r="1.15" fill="#fff" opacity="0.72"/>
<circle cx="1054.7" cy="553.3" r="1.09" fill="#fff" opacity="0.84"/>
<circle cx="1034.1" cy="203.9" r="0.88" fill="#fff" opacity="0.63"/>
<circle cx="1171.8" cy="59.5" r="0.72" fill="#fff" opacity="0.74"/>
<circle cx="281.0" cy="87.2" r="0.99" fill="#fff" opacity="0.88"/>
<circle cx="849.4" cy="602.9" r="1.31" fill="#fff" opacity="0.42"/>
<circle cx="1319.5" cy="318.0" r="1.29" fill="#fff" opacity="0.74"/>
<circle cx="541.9" cy="76.0" r="1.46" fill="#fff" opacity="0.34"/>
<circle cx="1546.4" cy="567.7" r="1.20" fill="#fff" opacity="0.89"/>
<circle cx="1547.6" cy="531.0" r="0.80" fill="#fff" opacity="0.76"/>
<circle cx="22.3" cy="354.1" r="0.90" fill="#fff" opacity="0.69"/>
<circle cx="1075.7" cy="385.8" r="1.30" fill="#fff" opacity="0.86"/>
<circle cx="173.4" cy="154.3" r="0.43" fill="#fff" opacity="0.82"/>
<circle cx="898.3" cy="604.1" r="0.64" fill="#fff" opacity="0.29"/>
<circle cx="1318.2" cy="600.2" r="0.73" fill="#fff" opacity="0.52"/>
<circle cx="223.6" cy="624.5" r="0.73" fill="#fff" opacity="0.57"/>
<circle cx="155.5" cy="585.6" r="0.55" fill="#fff" opacity="0.54"/>
<circle cx="1072.8" cy="490.5" r="1.44" fill="#fff" opacity="0.52"/>
<circle cx="1187.6" cy="102.0" r="0.86" fill="#fff" opacity="0.31"/>
<circle cx="783.0" cy="269.4" r="1.45" fill="#fff" opacity="0.27"/>
<circle cx="592.8" cy="292.6" r="1.45" fill="#fff" opacity="0.81"/>
<circle cx="159.0" cy="452.5" r="1.00" fill="#fff" opacity="0.89"/>
<circle cx="573.9" cy="262.8" r="0.61" fill="#fff" opacity="0.33"/>
<circle cx="1356.9" cy="300.1" r="1.13" fill="#fff" opacity="0.67"/>
<circle cx="955.4" cy="14.1" r="1.27" fill="#fff" opacity="0.41"/>
<circle cx="201.5" cy="372.6" r="0.48" fill="#fff" opacity="0.75"/>
<circle cx="331.5" cy="142.5" r="1.36" fill="#fff" opacity="0.46"/>
<circle cx="236.1" cy="594.4" r="0.40" fill="#fff" opacity="0.81"/>
<circle cx="231.5" cy="85.8" r="0.68" fill="#fff" opacity="0.36"/>
<circle cx="1057.7" cy="17.0" r="0.42" fill="#fff" opacity="0.76"/>
<circle cx="380.7" cy="213.7" r="0.59" fill="#fff" opacity="0.28"/>
<circle cx="1186.7" cy="347.2" r="1.22" fill="#fff" opacity="0.56"/>
<circle cx="1244.8" cy="338.7" r="0.52" fill="#fff" opacity="0.58"/>
<circle cx="1512.7" cy="28.6" r="1.26" fill="#fff" opacity="0.81"/>
<circle cx="834.3" cy="302.3" r="1.46" fill="#fff" opacity="0.29"/>
<circle cx="766.4" cy="265.1" r="1.15" fill="#fff" opacity="0.57"/>
<circle cx="1455.5" cy="48.5" r="0.49" fill="#fff" opacity="0.65"/>
<circle cx="105.1" cy="181.5" r="1.10" fill="#fff" opacity="0.61"/>
<circle cx="520.3" cy="656.5" r="0.98" fill="#fff" opacity="0.54"/>
<circle cx="968.7" cy="65.5" r="1.17" fill="#fff" opacity="0.80"/>
<circle cx="1041.5" cy="507.5" r="1.19" fill="#fff" opacity="0.39"/>
<circle cx="722.5" cy="150.8" r="0.77" fill="#fff" opacity="0.54"/>
<circle cx="665.6" cy="62.8" r="0.87" fill="#fff" opacity="0.68"/>
<circle cx="598.9" cy="100.7" r="1.42" fill="#fff" opacity="0.29"/>
<circle cx="1330.8" cy="61.5" r="0.51" fill="#fff" opacity="0.73"/>
<circle cx="1298.8" cy="367.2" r="1.05" fill="#fff" opacity="0.62"/>
<circle cx="527.4" cy="80.7" r="0.79" fill="#fff" opacity="0.68"/>
<circle cx="1200.5" cy="572.9" r="1.19" fill="#fff" opacity="0.88"/>
<circle cx="960.7" cy="232.1" r="1.04" fill="#fff" opacity="0.39"/>
<circle cx="1050.8" cy="148.0" r="0.52" fill="#fff" opacity="0.80"/>
<circle cx="588.1" cy="503.3" r="1.03" fill="#fff" opacity="0.77"/>
<circle cx="1352.2" cy="643.2" r="1.30" fill="#fff" opacity="0.65"/>
<circle cx="1028.3" cy="17.3" r="1.42" fill="#fff" opacity="0.79"/>
<circle cx="427.9" cy="119.1" r="1.17" fill="#fff" opacity="0.45"/>
<circle cx="543.7" cy="4.0" r="1.36" fill="#fff" opacity="0.62"/>
<circle cx="641.3" cy="93.6" r="1.10" fill="#fff" opacity="0.27"/>
<circle cx="1193.8" cy="142.0" r="0.86" fill="#fff" opacity="0.47"/>
<circle cx="592.1" cy="476.3" r="1.25" fill="#fff" opacity="0.62"/>
<circle cx="135.9" cy="34.7" r="0.57" fill="#fff" opacity="0.65"/>
<circle cx="1078.3" cy="179.6" r="1.13" fill="#fff" opacity="0.57"/>
<circle cx="707.3" cy="180.3" r="1.23" fill="#fff" opacity="0.32"/>
<circle cx="687.9" cy="186.9" r="1.15" fill="#fff" opacity="0.57"/>
<circle cx="1067.4" cy="30.0" r="0.83" fill="#fff" opacity="0.64"/>
<circle cx="12.3" cy="198.9" r="0.63" fill="#fff" opacity="0.34"/>
<circle cx="408.8" cy="216.6" r="0.41" fill="#fff" opacity="0.74"/>
<circle cx="281.1" cy="250.9" r="1.17" fill="#fff" opacity="0.58"/>
<circle cx="1333.4" cy="532.1" r="0.48" fill="#fff" opacity="0.81"/>
<circle cx="67.7" cy="12.4" r="1.41" fill="#fff" opacity="0.81"/>
<circle cx="921.2" cy="378.4" r="1.18" fill="#fff" opacity="0.52"/>
<circle cx="184.3" cy="13.8" r="0.76" fill="#fff" opacity="0.77"/>
<circle cx="989.0" cy="549.1" r="1.41" fill="#fff" opacity="0.31"/>
<circle cx="1351.2" cy="160.6" r="1.05" fill="#fff" opacity="0.59"/>
<circle cx="633.2" cy="204.8" r="0.77" fill="#fff" opacity="0.47"/>
<circle cx="269.0" cy="336.9" r="0.53" fill="#fff" opacity="0.58"/>
<circle cx="1449.5" cy="230.6" r="1.20" fill="#fff" opacity="0.78"/>
<circle cx="1304.1" cy="155.9" r="0.56" fill="#fff" opacity="0.38"/>
<circle cx="963.8" cy="501.7" r="1.12" fill="#fff" opacity="0.37"/>
<circle cx="1236.6" cy="326.1" r="1.23" fill="#fff" opacity="0.74"/>
<circle cx="718.2" cy="609.9" r="1.02" fill="#fff" opacity="0.66"/>
<circle cx="999.2" cy="570.4" r="1.09" fill="#fff" opacity="0.35"/>
<circle cx="109.3" cy="291.9" r="0.73" fill="#fff" opacity="0.43"/>
<circle cx="89.9" cy="334.8" r="0.74" fill="#fff" opacity="0.54"/>
<circle cx="91.0" cy="548.9" r="0.48" fill="#fff" opacity="0.81"/>
<circle cx="1368.5" cy="405.9" r="0.96" fill="#fff" opacity="0.55"/>
<circle cx="886.9" cy="522.6" r="1.39" fill="#fff" opacity="0.54"/>
<circle cx="1295.7" cy="430.2" r="0.75" fill="#fff" opacity="0.56"/>
<circle cx="241.4" cy="40.8" r="0.51" fill="#fff" opacity="0.83"/>
<circle cx="549.5" cy="471.4" r="0.96" fill="#fff" opacity="0.36"/>
<circle cx="396.4" cy="288.9" r="0.88" fill="#fff" opacity="0.59"/>
<circle cx="254.0" cy="246.1" r="0.71" fill="#fff" opacity="0.52"/>
<circle cx="541.4" cy="394.6" r="1.27" fill="#fff" opacity="0.67"/>
<circle cx="105.5" cy="62.4" r="1.15" fill="#fff" opacity="0.43"/>
<circle cx="1158.0" cy="433.3" r="1.40" fill="#fff" opacity="0.82"/>
<circle cx="533.4" cy="384.6" r="0.56" fill="#fff" opacity="0.48"/>
<circle cx="1548.3" cy="461.0" r="0.83" fill="#fff" opacity="0.64"/>
<circle cx="1500.8" cy="204.3" r="0.81" fill="#fff" opacity="0.76"/>
<circle cx="1301.1" cy="442.3" r="1.31" fill="#fff" opacity="0.73"/>
<circle cx="1096.7" cy="347.4" r="1.11" fill="#fff" opacity="0.53"/>
<circle cx="578.9" cy="239.3" r="0.60" fill="#fff" opacity="0.39"/>
<circle cx="1516.3" cy="320.9" r="0.65" fill="#fff" opacity="0.34"/>
<circle cx="123.5" cy="557.3" r="0.51" fill="#fff" opacity="0.75"/>
<circle cx="1336.2" cy="583.2" r="0.44" fill="#fff" opacity="0.47"/>
<circle cx="1226.1" cy="86.5" r="0.81" fill="#fff" opacity="0.36"/>
<circle cx="1330.2" cy="508.9" r="1.29" fill="#fff" opacity="0.36"/>
<circle cx="700.3" cy="271.2" r="1.14" fill="#fff" opacity="0.40"/>
<circle cx="710.7" cy="188.1" r="1.22" fill="#fff" opacity="0.54"/>
<circle cx="854.4" cy="204.2" r="1.29" fill="#fff" opacity="0.55"/>
<circle cx="1336.2" cy="242.8" r="1.44" fill="#fff" opacity="0.89"/>
<circle cx="738.7" cy="186.0" r="0.82" fill="#fff" opacity="0.59"/>
<circle cx="1546.0" cy="539.1" r="1.28" fill="#fff" opacity="0.34"/>
<circle cx="400.0" cy="423.2" r="1.36" fill="#fff" opacity="0.61"/>
<circle cx="1015.5" cy="245.4" r="0.50" fill="#fff" opacity="0.68"/>
<circle cx="976.6" cy="254.9" r="0.45" fill="#fff" opacity="0.60"/>
<circle cx="1139.3" cy="55.6" r="1.56" fill="#fff" opacity="0.39"/>
<circle cx="1154.6" cy="216.6" r="1.21" fill="#fff" opacity="0.58"/>
<circle cx="651.0" cy="687.8" r="0.81" fill="#fff" opacity="0.40"/>
<circle cx="1153.1" cy="133.3" r="0.65" fill="#fff" opacity="0.71"/>
<circle cx="888.4" cy="434.6" r="0.49" fill="#fff" opacity="0.34"/>
<circle cx="1173.3" cy="143.1" r="0.84" fill="#fff" opacity="0.71"/>
<circle cx="973.8" cy="345.4" r="1.38" fill="#fff" opacity="0.47"/>
<circle cx="950.1" cy="432.6" r="1.42" fill="#fff" opacity="0.50"/>
<circle cx="661.8" cy="637.5" r="1.46" fill="#fff" opacity="0.41"/>
<circle cx="907.9" cy="353.1" r="1.47" fill="#fff" opacity="0.70"/>
<circle cx="752.5" cy="603.7" r="1.23" fill="#fff" opacity="0.71"/>
<circle cx="1069.4" cy="365.3" r="1.06" fill="#fff" opacity="0.76"/>
<circle cx="1254.1" cy="76.5" r="1.79" fill="#fff" opacity="0.88"/>
<circle cx="1078.6" cy="222.4" r="0.43" fill="#fff" opacity="0.62"/>
<circle cx="1092.0" cy="74.6" r="1.48" fill="#fff" opacity="0.39"/>
<circle cx="1099.1" cy="223.0" r="0.51" fill="#fff" opacity="0.61"/>
<circle cx="1027.8" cy="410.0" r="1.61" fill="#fff" opacity="0.49"/>
<circle cx="1004.5" cy="331.9" r="1.74" fill="#fff" opacity="0.41"/>
<circle cx="1108.4" cy="100.8" r="1.08" fill="#fff" opacity="0.71"/>
<circle cx="1021.5" cy="178.4" r="0.92" fill="#fff" opacity="0.70"/>
<circle cx="779.1" cy="631.8" r="1.26" fill="#fff" opacity="0.77"/>
<circle cx="1293.3" cy="88.2" r="1.62" fill="#fff" opacity="0.86"/>
<circle cx="1023.9" cy="223.5" r="1.29" fill="#fff" opacity="0.34"/>
<circle cx="1161.9" cy="22.6" r="0.88" fill="#fff" opacity="0.34"/>
<circle cx="1187.1" cy="-27.7" r="0.91" fill="#fff" opacity="0.32"/>
<circle cx="807.1" cy="537.4" r="0.75" fill="#fff" opacity="0.54"/>
<circle cx="989.1" cy="294.9" r="1.79" fill="#fff" opacity="0.63"/>
<circle cx="919.0" cy="281.9" r="0.88" fill="#fff" opacity="0.49"/>
<circle cx="749.8" cy="493.2" r="1.73" fill="#fff" opacity="0.67"/>
<circle cx="1180.1" cy="57.1" r="1.14" fill="#fff" opacity="0.98"/>
<circle cx="827.8" cy="543.9" r="0.91" fill="#fff" opacity="0.42"/>
<circle cx="846.7" cy="547.5" r="0.86" fill="#fff" opacity="0.46"/>
<circle cx="907.2" cy="581.7" r="1.53" fill="#fff" opacity="0.87"/>
<circle cx="808.7" cy="495.6" r="0.90" fill="#fff" opacity="0.32"/>
<circle cx="1195.5" cy="9.0" r="1.37" fill="#fff" opacity="0.97"/>
<circle cx="1091.6" cy="364.8" r="1.74" fill="#fff" opacity="0.56"/>
<circle cx="1084.0" cy="124.7" r="0.69" fill="#fff" opacity="0.74"/>
<circle cx="834.1" cy="593.7" r="1.31" fill="#fff" opacity="0.86"/>
<circle cx="1234.0" cy="123.4" r="1.50" fill="#fff" opacity="0.83"/>
<circle cx="938.8" cy="360.6" r="0.87" fill="#fff" opacity="0.86"/>
<circle cx="716.3" cy="630.0" r="1.73" fill="#fff" opacity="0.81"/>
<circle cx="1092.8" cy="86.9" r="1.67" fill="#fff" opacity="0.86"/>
<circle cx="1231.3" cy="171.2" r="1.32" fill="#fff" opacity="0.55"/>
<circle cx="892.8" cy="312.9" r="1.76" fill="#fff" opacity="0.75"/>
<circle cx="1049.0" cy="349.1" r="1.62" fill="#fff" opacity="0.88"/>
<circle cx="1093.5" cy="130.2" r="0.74" fill="#fff" opacity="0.71"/>
<circle cx="1098.0" cy="141.7" r="1.67" fill="#fff" opacity="0.55"/>
<circle cx="1022.2" cy="361.7" r="0.99" fill="#fff" opacity="0.94"/>
<circle cx="989.9" cy="343.9" r="0.43" fill="#fff" opacity="0.61"/>
<circle cx="1063.7" cy="173.1" r="0.64" fill="#fff" opacity="0.63"/>
<circle cx="875.8" cy="463.2" r="1.13" fill="#fff" opacity="0.69"/>
<circle cx="763.4" cy="529.2" r="0.75" fill="#fff" opacity="0.49"/>
<circle cx="842.1" cy="521.7" r="1.46" fill="#fff" opacity="0.94"/>
<circle cx="1035.3" cy="304.3" r="1.12" fill="#fff" opacity="0.78"/>
<circle cx="1016.2" cy="306.9" r="1.72" fill="#fff" opacity="0.79"/>
<circle cx="865.0" cy="552.1" r="1.18" fill="#fff" opacity="0.96"/>
<circle cx="739.5" cy="512.2" r="1.02" fill="#fff" opacity="0.35"/>
<circle cx="1045.6" cy="194.3" r="1.50" fill="#fff" opacity="0.93"/>
<circle cx="1207.0" cy="138.1" r="0.60" fill="#fff" opacity="0.92"/>
<circle cx="686.7" cy="693.5" r="0.96" fill="#fff" opacity="0.64"/>
<circle cx="785.2" cy="612.9" r="1.00" fill="#fff" opacity="0.66"/>
<circle cx="1015.5" cy="215.3" r="1.41" fill="#fff" opacity="0.31"/>
<circle cx="945.6" cy="316.8" r="0.86" fill="#fff" opacity="0.74"/>
<circle cx="900.1" cy="406.1" r="1.50" fill="#fff" opacity="0.98"/>
<circle cx="1152.3" cy="31.8" r="1.49" fill="#fff" opacity="0.49"/>
<circle cx="1167.3" cy="152.3" r="1.55" fill="#fff" opacity="0.48"/>
<circle cx="1246.3" cy="124.1" r="1.38" fill="#fff" opacity="0.36"/>
<circle cx="1253.4" cy="47.9" r="0.50" fill="#fff" opacity="0.96"/>
<circle cx="968.0" cy="376.1" r="1.60" fill="#fff" opacity="0.35"/>
<circle cx="784.4" cy="552.9" r="1.17" fill="#fff" opacity="0.95"/>
<circle cx="1041.3" cy="194.7" r="0.73" fill="#fff" opacity="0.38"/>
<circle cx="1083.5" cy="87.5" r="0.84" fill="#fff" opacity="0.51"/>
<circle cx="809.7" cy="506.1" r="0.65" fill="#fff" opacity="0.54"/>
<circle cx="1195.5" cy="-26.5" r="1.43" fill="#fff" opacity="0.69"/>
<circle cx="1145.0" cy="193.4" r="0.55" fill="#fff" opacity="0.87"/>
<circle cx="1020.0" cy="336.7" r="0.95" fill="#fff" opacity="0.65"/>
<circle cx="972.3" cy="441.3" r="1.57" fill="#fff" opacity="0.79"/>
<circle cx="895.8" cy="408.7" r="0.48" fill="#fff" opacity="0.39"/>
<circle cx="1255.9" cy="35.9" r="0.63" fill="#fff" opacity="0.36"/>
<circle cx="870.8" cy="578.9" r="0.79" fill="#fff" opacity="0.47"/>
<circle cx="1087.4" cy="166.5" r="1.02" fill="#fff" opacity="0.48"/>
<circle cx="825.3" cy="641.2" r="0.74" fill="#fff" opacity="0.98"/>
<circle cx="1060.1" cy="158.2" r="0.93" fill="#fff" opacity="0.63"/>
<circle cx="929.7" cy="342.3" r="0.41" fill="#fff" opacity="0.48"/>
<circle cx="1184.3" cy="22.4" r="0.43" fill="#fff" opacity="0.51"/>
<circle cx="1142.0" cy="172.5" r="1.45" fill="#fff" opacity="0.76"/>
<circle cx="938.8" cy="465.0" r="0.86" fill="#fff" opacity="0.99"/>
<circle cx="1211.1" cy="132.8" r="0.46" fill="#fff" opacity="0.88"/>
<circle cx="800.2" cy="618.9" r="1.54" fill="#fff" opacity="0.40"/>
<circle cx="973.2" cy="395.4" r="1.53" fill="#fff" opacity="0.88"/>
<circle cx="1011.2" cy="415.7" r="1.37" fill="#fff" opacity="0.46"/>
<circle cx="1167.4" cy="23.2" r="0.55" fill="#fff" opacity="0.89"/>
<circle cx="977.0" cy="392.6" r="1.35" fill="#fff" opacity="0.64"/>
<circle cx="1301.8" cy="51.9" r="1.10" fill="#fff" opacity="0.67"/>
<circle cx="822.5" cy="470.4" r="0.75" fill="#fff" opacity="0.35"/>
<circle cx="1150.5" cy="154.6" r="1.44" fill="#fff" opacity="0.98"/>
<circle cx="967.1" cy="333.6" r="1.36" fill="#fff" opacity="0.84"/>
<circle cx="948.7" cy="364.2" r="0.61" fill="#fff" opacity="0.48"/>
<circle cx="820.9" cy="503.8" r="0.42" fill="#fff" opacity="0.34"/>
<circle cx="1138.5" cy="215.1" r="1.35" fill="#fff" opacity="0.50"/>
<circle cx="969.9" cy="346.5" r="0.57" fill="#fff" opacity="0.93"/>
<circle cx="1230.5" cy="199.9" r="0.42" fill="#fff" opacity="0.62"/>
<circle cx="899.7" cy="538.7" r="0.78" fill="#fff" opacity="0.45"/>
<circle cx="696.8" cy="635.0" r="0.60" fill="#fff" opacity="0.67"/>
<circle cx="678.9" cy="668.2" r="1.11" fill="#fff" opacity="0.92"/>
<circle cx="828.9" cy="517.9" r="1.08" fill="#fff" opacity="0.32"/>
<circle cx="1246.6" cy="16.4" r="0.82" fill="#fff" opacity="0.40"/>
<circle cx="1034.6" cy="281.0" r="0.40" fill="#fff" opacity="0.83"/>
<circle cx="736.9" cy="608.2" r="1.40" fill="#fff" opacity="0.93"/>
<circle cx="1073.4" cy="192.6" r="1.80" fill="#fff" opacity="0.71"/>
<circle cx="1045.9" cy="223.9" r="0.47" fill="#fff" opacity="0.37"/>
<circle cx="769.0" cy="606.5" r="0.75" fill="#fff" opacity="0.49"/>
<circle cx="923.4" cy="331.8" r="1.74" fill="#fff" opacity="0.92"/>
<circle cx="843.2" cy="589.3" r="1.72" fill="#fff" opacity="0.68"/>
<circle cx="787.5" cy="508.4" r="1.03" fill="#fff" opacity="0.83"/>
<circle cx="869.9" cy="378.4" r="1.70" fill="#fff" opacity="0.39"/>
<circle cx="971.6" cy="297.9" r="1.43" fill="#fff" opacity="0.98"/>
<circle cx="1140.2" cy="162.6" r="1.18" fill="#fff" opacity="0.58"/>
<circle cx="1100.4" cy="92.0" r="1.67" fill="#fff" opacity="0.65"/>
<circle cx="1206.5" cy="220.4" r="1.03" fill="#fff" opacity="0.40"/>
<circle cx="1074.4" cy="124.2" r="0.53" fill="#fff" opacity="0.47"/>
<circle cx="1125.6" cy="231.8" r="1.45" fill="#fff" opacity="0.59"/>
<circle cx="1035.0" cy="270.1" r="0.87" fill="#fff" opacity="0.34"/>
<circle cx="1187.1" cy="152.7" r="1.10" fill="#fff" opacity="0.74"/>
<circle cx="741.6" cy="544.8" r="0.75" fill="#fff" opacity="0.58"/>
<circle cx="1095.4" cy="347.2" r="1.62" fill="#fff" opacity="0.32"/>
<circle cx="1270.6" cy="88.1" r="1.06" fill="#fff" opacity="0.71"/>
<circle cx="1230.4" cy="71.3" r="1.56" fill="#fff" opacity="0.90"/>
<circle cx="689.4" cy="595.3" r="0.62" fill="#fff" opacity="0.67"/>
<circle cx="968.0" cy="483.1" r="1.31" fill="#fff" opacity="0.84"/>
<circle cx="1016.9" cy="257.4" r="1.50" fill="#fff" opacity="0.46"/>
<circle cx="788.6" cy="585.2" r="0.58" fill="#fff" opacity="0.48"/>
<circle cx="948.5" cy="380.7" r="0.50" fill="#fff" opacity="0.67"/>
<circle cx="920.9" cy="359.9" r="1.24" fill="#fff" opacity="0.31"/>
<circle cx="1083.1" cy="268.0" r="1.30" fill="#fff" opacity="0.92"/>
<circle cx="950.3" cy="293.8" r="1.74" fill="#fff" opacity="0.79"/>
<circle cx="1001.0" cy="216.5" r="1.34" fill="#fff" opacity="0.59"/>
<circle cx="1143.8" cy="235.7" r="0.72" fill="#fff" opacity="0.32"/>
<circle cx="1056.5" cy="258.3" r="0.68" fill="#fff" opacity="0.86"/>
<circle cx="859.1" cy="457.7" r="1.76" fill="#fff" opacity="0.52"/>
<circle cx="766.9" cy="511.4" r="1.46" fill="#fff" opacity="0.51"/>
<circle cx="744.7" cy="591.7" r="0.71" fill="#fff" opacity="0.59"/>
<circle cx="978.2" cy="403.4" r="0.95" fill="#fff" opacity="0.45"/>
<circle cx="669.3" cy="589.7" r="0.48" fill="#fff" opacity="0.58"/>
<circle cx="843.0" cy="622.8" r="1.80" fill="#fff" opacity="0.95"/>
<circle cx="1018.9" cy="283.0" r="1.44" fill="#fff" opacity="0.32"/>
<circle cx="876.0" cy="430.1" r="0.86" fill="#fff" opacity="0.42"/>
<circle cx="1208.8" cy="4.0" r="1.74" fill="#fff" opacity="0.39"/>
<circle cx="686.3" cy="619.9" r="1.55" fill="#fff" opacity="0.88"/>
<circle cx="939.7" cy="293.6" r="0.92" fill="#fff" opacity="0.94"/>
<circle cx="1123.3" cy="191.2" r="0.44" fill="#fff" opacity="0.59"/>
<circle cx="867.7" cy="484.4" r="0.45" fill="#fff" opacity="0.34"/>
<circle cx="718.6" cy="638.5" r="1.66" fill="#fff" opacity="0.54"/>
<circle cx="1188.1" cy="208.3" r="0.77" fill="#fff" opacity="0.80"/>
<circle cx="1041.9" cy="163.0" r="1.46" fill="#fff" opacity="0.94"/>
<circle cx="993.8" cy="368.7" r="0.73" fill="#fff" opacity="0.63"/>
<circle cx="824.6" cy="618.7" r="0.75" fill="#fff" opacity="0.60"/>
<circle cx="1065.5" cy="297.8" r="1.52" fill="#fff" opacity="0.82"/>
<circle cx="863.0" cy="559.4" r="0.86" fill="#fff" opacity="0.52"/>
<circle cx="1109.0" cy="201.1" r="0.68" fill="#fff" opacity="0.83"/>
<circle cx="1040.6" cy="122.3" r="1.17" fill="#fff" opacity="0.53"/>
<circle cx="799.5" cy="705.9" r="0.77" fill="#fff" opacity="0.36"/>
<circle cx="1198.6" cy="106.9" r="1.03" fill="#fff" opacity="0.46"/>
<circle cx="1050.7" cy="307.7" r="1.45" fill="#fff" opacity="0.89"/>
<circle cx="829.7" cy="486.1" r="0.81" fill="#fff" opacity="0.70"/>
<circle cx="1095.2" cy="222.6" r="0.75" fill="#fff" opacity="0.47"/>
<circle cx="1237.9" cy="127.5" r="0.86" fill="#fff" opacity="0.58"/>
<circle cx="725.3" cy="622.9" r="1.53" fill="#fff" opacity="0.76"/>
<circle cx="653.2" cy="651.2" r="1.55" fill="#fff" opacity="0.89"/>
<circle cx="682.6" cy="580.4" r="0.57" fill="#fff" opacity="0.43"/>
<circle cx="749.3" cy="694.3" r="0.92" fill="#fff" opacity="0.91"/>
<circle cx="968.8" cy="340.8" r="1.72" fill="#fff" opacity="0.37"/>
<circle cx="955.6" cy="367.7" r="0.92" fill="#fff" opacity="0.40"/>
<circle cx="1097.8" cy="162.5" r="1.31" fill="#fff" opacity="0.44"/>
<circle cx="1212.9" cy="48.7" r="0.66" fill="#fff" opacity="0.52"/>
<circle cx="1195.3" cy="155.9" r="0.49" fill="#fff" opacity="0.37"/>
<circle cx="1049.5" cy="289.7" r="0.53" fill="#fff" opacity="0.41"/>
<circle cx="865.2" cy="439.1" r="0.83" fill="#fff" opacity="0.97"/>
<circle cx="1096.4" cy="202.8" r="0.98" fill="#fff" opacity="0.90"/>
<circle cx="697.3" cy="621.5" r="1.42" fill="#fff" opacity="0.44"/>
<circle cx="1319.2" cy="14.6" r="1.55" fill="#fff" opacity="0.58"/>
<circle cx="775.1" cy="544.5" r="0.42" fill="#fff" opacity="0.69"/>
<circle cx="984.2" cy="380.7" r="1.27" fill="#fff" opacity="0.56"/>
<circle cx="918.9" cy="316.9" r="1.13" fill="#fff" opacity="0.95"/>
<circle cx="1190.6" cy="126.2" r="1.75" fill="#fff" opacity="0.44"/>
<circle cx="1262.6" cy="158.1" r="1.08" fill="#fff" opacity="0.34"/>
<circle cx="739.0" cy="661.3" r="1.27" fill="#fff" opacity="0.88"/>
<circle cx="1216.5" cy="89.2" r="0.97" fill="#fff" opacity="0.89"/>
<circle cx="753.5" cy="516.9" r="0.96" fill="#fff" opacity="0.66"/>
<circle cx="978.9" cy="235.1" r="1.41" fill="#fff" opacity="0.93"/>
<circle cx="1239.4" cy="77.2" r="0.45" fill="#fff" opacity="0.89"/>
<circle cx="1205.5" cy="101.4" r="1.28" fill="#fff" opacity="0.51"/>
<circle cx="1042.2" cy="279.9" r="1.32" fill="#fff" opacity="0.61"/>
<circle cx="931.9" cy="314.8" r="1.09" fill="#fff" opacity="0.46"/>
<circle cx="895.7" cy="503.7" r="0.65" fill="#fff" opacity="0.63"/>
<circle cx="1126.4" cy="80.2" r="0.53" fill="#fff" opacity="0.61"/>
<circle cx="897.0" cy="362.9" r="0.52" fill="#fff" opacity="0.81"/>
<circle cx="839.9" cy="464.2" r="1.11" fill="#fff" opacity="0.56"/>
<circle cx="680.6" cy="671.4" r="1.79" fill="#fff" opacity="0.81"/>
<circle cx="762.9" cy="599.4" r="1.09" fill="#fff" opacity="0.97"/>
<circle cx="704.2" cy="640.9" r="1.70" fill="#fff" opacity="0.35"/>
<circle cx="1110.1" cy="203.6" r="1.66" fill="#fff" opacity="0.49"/>
<circle cx="753.6" cy="542.3" r="1.69" fill="#fff" opacity="0.45"/>
<circle cx="1111.8" cy="166.5" r="0.45" fill="#fff" opacity="0.43"/>
<circle cx="1243.1" cy="144.7" r="1.65" fill="#fff" opacity="0.42"/>
<circle cx="764.7" cy="526.0" r="1.29" fill="#fff" opacity="0.55"/>
<circle cx="797.3" cy="588.3" r="1.64" fill="#fff" opacity="0.37"/>
<circle cx="747.1" cy="642.8" r="1.52" fill="#fff" opacity="0.49"/>
<circle cx="739.0" cy="637.1" r="1.47" fill="#fff" opacity="0.61"/>
<circle cx="1200.2" cy="78.9" r="1.55" fill="#fff" opacity="0.48"/>
<circle cx="998.3" cy="439.4" r="1.33" fill="#fff" opacity="0.52"/>
<circle cx="1165.1" cy="-20.9" r="1.26" fill="#fff" opacity="0.60"/>
<circle cx="1049.5" cy="304.0" r="0.72" fill="#fff" opacity="0.76"/>
<circle cx="1148.7" cy="16.9" r="0.55" fill="#fff" opacity="0.55"/>
<circle cx="1146.2" cy="174.2" r="0.69" fill="#fff" opacity="0.74"/>
<circle cx="932.6" cy="376.3" r="0.74" fill="#fff" opacity="0.40"/>
<circle cx="1224.1" cy="125.9" r="1.50" fill="#fff" opacity="0.58"/>
<circle cx="1022.0" cy="206.5" r="1.19" fill="#fff" opacity="0.55"/>
<circle cx="730" cy="315" r="1.8" fill="#fff"/><circle cx="730" cy="315" r="5" fill="#fff" opacity="0.18"/>
<circle cx="1428" cy="267" r="1.8" fill="#fff"/><circle cx="1428" cy="267" r="5" fill="#fff" opacity="0.18"/>
<circle cx="812" cy="330" r="1.8" fill="#fff"/><circle cx="812" cy="330" r="5" fill="#fff" opacity="0.18"/>
<circle cx="333" cy="291" r="1.8" fill="#fff"/><circle cx="333" cy="291" r="5" fill="#fff" opacity="0.18"/>
<circle cx="992" cy="434" r="1.8" fill="#fff"/><circle cx="992" cy="434" r="5" fill="#fff" opacity="0.18"/>
<circle cx="199" cy="185" r="1.8" fill="#fff"/><circle cx="199" cy="185" r="5" fill="#fff" opacity="0.18"/>
<circle cx="194" cy="443" r="1.8" fill="#fff"/><circle cx="194" cy="443" r="5" fill="#fff" opacity="0.18"/>
<circle cx="1086" cy="51" r="1.8" fill="#fff"/><circle cx="1086" cy="51" r="5" fill="#fff" opacity="0.18"/>
<circle cx="1514" cy="522" r="1.8" fill="#fff"/><circle cx="1514" cy="522" r="5" fill="#fff" opacity="0.18"/>
<circle cx="1028" cy="344" r="1.8" fill="#fff"/><circle cx="1028" cy="344" r="5" fill="#fff" opacity="0.18"/>
<circle cx="293" cy="38" r="1.8" fill="#fff"/><circle cx="293" cy="38" r="5" fill="#fff" opacity="0.18"/>
<circle cx="842" cy="60" r="1.8" fill="#fff"/><circle cx="842" cy="60" r="5" fill="#fff" opacity="0.18"/>
<circle cx="342" cy="153" r="1.8" fill="#fff"/><circle cx="342" cy="153" r="5" fill="#fff" opacity="0.18"/>
<circle cx="105" cy="267" r="1.8" fill="#fff"/><circle cx="105" cy="267" r="5" fill="#fff" opacity="0.18"/>

<!-- horizon glow -->
<rect x="0" y="400" width="1600" height="300" fill="url(#glow)"/>

<!-- ground -->
<rect x="0" y="660" width="1600" height="240" fill="url(#ground)"/>
<path d="M0 660 L0 630 C 260 590, 520 642, 820 614 C 1120 586, 1360 638, 1600 608 L1600 660 Z" fill="#0a0e15"/>


<g fill="#05070b">
  <!-- base skid -->
  <rect x="300" y="646" width="250" height="18"/>
  <!-- concrete pad -->
  <rect x="290" y="664" width="280" height="10" opacity="0.85"/>
  <!-- Samson A-frame post -->
  <polygon points="430,470 415,646 452,646"/>
  <polygon points="430,470 470,646 505,646"/>
  <rect x="424" y="474" width="14" height="8"/>
  <!-- cross brace -->
  <polygon points="430,560 470,620 478,626 438,566"/>
  <!-- walking beam -->
  <polygon points="150,505 520,452 528,474 168,527"/>
  <!-- horse head (front, left) -->
  <path d="M150 505 q-34 6 -40 40 q-3 26 20 40 l20 -6 q-20 -12 -14 -34 q5 -22 30 -22 z"/>
  <!-- bridle / cables to wellhead -->
  <rect x="126" y="585" width="4" height="75"/>
  <rect x="150" y="585" width="4" height="75"/>
  <!-- wellhead -->
  <rect x="120" y="620 " width="44" height="40"/>
  <!-- pitman arm -->
  <polygon points="520,452 560,585 548,590 508,470"/>
  <!-- counterweight / crank -->
  <circle cx="556" cy="595" r="42"/>
  <rect x="512" y="588" width="90" height="16"/>
  <!-- crank pin -->
  <circle cx="556" cy="595" r="10" fill="#0b0f16"/>
</g>
</svg>