<?xml version="1.0" encoding="UTF-8"?>
<svg id="Layer_1" data-name="Layer 1" xmlns="http://www.w3.org/2000/svg" viewBox="30.0 253.4 969.3 442.2">
  <defs>
    <style>
      .cls-1 {
        fill: #fff;
      }

      .cls-2, .cls-3 {
        fill: #d8b256;
      }

      .cls-3 {
        font-family: Meutas-ExtraBold, 'CJKBS J+ Meutas';
        font-size: 58.77px;
        font-weight: 700;
        letter-spacing: .7em;
      }
    </style>
  </defs>
  <polygon class="cls-1" points="241.9 573.24 235.38 575.05 221.6 578.86 221.6 575.05 194.58 575.05 194.58 578.84 180.88 575.05 174.27 573.22 180.87 571.39 194.58 567.61 194.58 571.39 221.6 571.39 221.6 567.62 235.22 571.39 241.9 573.24"/>
  <text class="cls-3" transform="translate(46.01 666.7) scale(.93 1)"><tspan x="0" y="0">LAND SERVICES</tspan></text>
  <polygon class="cls-1" points="219.52 423.36 229.37 429.05 240.9 435.71 262.22 448.01 255.13 435.71 251.29 429.05 219.52 373.91 219.52 423.36"/>
  <polygon class="cls-2" points="264.49 435.71 269.24 443.94 269.24 362.78 222.49 362.78 260.66 429.05 264.49 435.71"/>
  <polygon class="cls-2" points="269.24 354.65 269.24 273.49 222.49 354.65 269.24 354.65"/>
  <polygon class="cls-1" points="262.22 269.41 262.2 269.41 165.75 325.24 213.98 353.16 262.22 269.41"/>
  <polygon class="cls-1" points="161.68 332.28 161.68 384.77 207.31 358.69 161.68 332.28"/>
  <polygon class="cls-1" points="149.51 325.24 53.05 269.41 101.27 353.16 149.51 325.24"/>
  <polygon class="cls-2" points="46.01 273.49 46.01 354.65 92.76 354.65 46.01 273.49"/>
  <polygon class="cls-1" points="153.56 384.77 153.56 332.28 107.95 358.69 153.56 384.77"/>
  <polygon class="cls-1" points="60.13 435.71 53.04 448.01 74.34 435.71 85.88 429.05 95.72 423.36 95.72 373.91 63.96 429.05 60.13 435.71"/>
  <polygon class="cls-2" points="54.59 429.05 92.76 362.78 46.01 362.78 46.01 443.94 50.75 435.71 54.59 429.05"/>
  <polygon class="cls-1" points="67.75 511.84 101.82 564.95 135.9 511.99 135.9 582.36 157.62 582.36 157.62 466.3 139.47 466.3 101.82 529.39 64.19 466.3 46.03 466.3 46.03 582.36 67.75 582.36 67.75 511.84"/>
  <path class="cls-1" d="M220.33,482.95c8.31,0,13.74,1.28,21.42,3.51v-19.82c-8.47-2.87-15.83-3.99-25.58-3.99-38.2,0-49.22,23.97-49.22,47.79s11.02,47.95,49.22,47.95c9.75,0,17.27-1.12,25.74-3.99v-19.98c-8,2.39-13.27,3.67-21.58,3.67-18.07,0-30.53-9.1-30.53-27.65s12.62-27.49,30.53-27.49Z"/>
  <path class="cls-1" d="M251.95,521.21c0,34.66,17.86,61.15,61.75,61.15,12.06,0,20.54-1.49,28.72-4.76v-21.12c-7.14,2.82-17.11,4.16-25.6,4.16-27.22,0-42.7-13.54-42.7-39.42s15.47-39.58,42.7-39.58c8.64,0,18.9,1.79,25.6,4.46v-20.82c-8.19-3.57-16.66-5.21-28.72-5.21-44.04,0-61.75,26.64-61.75,61.16Z"/>
  <path class="cls-1" d="M445.82,509.75c0-28.86-14.14-43.45-46.42-43.45h-43.6v116.05h21.72v-31.69h21.72l25,31.69h25.15l-26.93-34.66c15.77-5.06,23.36-18.31,23.36-37.95ZM397.77,531.62h-20.24v-46.12h20.24c18.15,0,26.04,6.84,26.04,24.4,0,16.51-7.89,21.72-26.04,21.72Z"/>
  <path class="cls-1" d="M456.1,582.36h24.1l7.89-24.4h45.38l7.88,24.4h24.11l-42.71-116.05h-23.8l-42.85,116.05ZM527.07,538.32h-32.59l16.36-50.45,16.22,50.45Z"/>
  <path class="cls-1" d="M630.32,484.9c8.63,0,18.9,1.79,25.6,4.46v-20.82c-8.19-3.57-16.67-5.21-28.72-5.21-44.04,0-61.75,26.64-61.75,61.16s17.85,61.15,61.75,61.15c12.05,0,20.54-1.49,28.72-4.76v-21.12c-7.15,2.83-17.11,4.16-25.6,4.16-27.22,0-42.7-13.54-42.7-39.42s15.47-39.58,42.7-39.58Z"/>
  <polygon class="cls-1" points="669.31 466.3 669.31 582.36 690.58 582.36 690.58 531.47 729.72 582.36 755.6 582.36 709.33 523.29 755.3 466.3 729.42 466.3 690.58 515.11 690.58 466.3 669.31 466.3"/>
  <polygon class="cls-1" points="845.02 485.05 845.02 466.3 766.03 466.3 766.03 582.36 845.02 582.36 845.02 563.31 787.74 563.31 787.74 533.71 840.12 533.71 840.12 514.66 787.74 514.66 787.74 485.05 845.02 485.05"/>
  <polygon class="cls-1" points="931.47 543.67 877.76 466.3 858.42 466.3 858.42 582.36 880.14 582.36 880.14 504.54 933.85 582.36 953.05 582.36 953.05 466.3 931.47 466.3 931.47 543.67"/>
  <polygon class="cls-1" points="304.19 440.06 877.51 440.06 889.07 440.06 927.57 440.06 927.57 442.83 950.82 438.72 927.57 434.62 927.57 437.39 884.62 437.39 877.51 437.39 304.19 437.39 304.19 434.62 280.93 438.72 304.19 442.83 304.19 440.06"/>
  <path class="cls-1" d="M953.05,361.02v-4.99h-20.54c-.47-4.21-2.14-8.06-4.65-11.21l14.53-14.53-3.53-3.53-14.53,14.53h0c-3.15-2.51-7-4.18-11.2-4.65v-20.54h-4.99v20.54c-4.2.47-8.05,2.14-11.2,4.65l-14.53-14.53-3.53,3.53,14.53,14.53c-2.51,3.15-4.17,7-4.65,11.21h-20.54v4.99h20.54c.47,4.21,2.14,8.06,4.65,11.21h0l-14.53,14.53,3.53,3.53,14.53-14.53h0c3.15,2.51,7,4.18,11.2,4.65v20.54h4.99v-20.54c4.2-.47,8.05-2.14,11.2-4.65l14.53,14.53,3.53-3.53-14.53-14.53c2.51-3.15,4.17-7,4.65-11.21h20.54ZM924.31,368.67c-1,1.34-2.19,2.53-3.53,3.53-2.2,1.64-4.82,2.76-7.65,3.18-.81.12-1.65.18-2.49.18s-1.68-.06-2.49-.18c-2.84-.42-5.45-1.54-7.65-3.18-1.34-1-2.53-2.18-3.53-3.53-1.64-2.2-2.76-4.82-3.18-7.65-.12-.81-.18-1.65-.18-2.49s.06-1.68.18-2.49c.42-2.84,1.54-5.45,3.18-7.65,1-1.34,2.18-2.53,3.53-3.53,2.2-1.64,4.82-2.76,7.65-3.18.81-.12,1.65-.18,2.49-.18s1.68.06,2.49.18c2.84.42,5.45,1.54,7.65,3.18,1.34,1,2.53,2.18,3.53,3.53,1.64,2.2,2.76,4.82,3.18,7.65.12.81.18,1.65.18,2.49s-.06,1.68-.18,2.49c-.42,2.84-1.54,5.45-3.18,7.65Z"/>
</svg>